<svg width="147" height="147" viewBox="0 0 147 147" fill="none" xmlns="http://www.w3.org/2000/svg">
<circle cx="73.0677" cy="73.7289" r="69.0677" stroke="#A1DA27" stroke-width="8"/>
<path d="M41.3332 54.0623C37.3027 64.3925 56.9288 81.9791 63.8193 87.7388C65.192 88.8862 67.1387 88.9283 68.6062 87.9048C71.0033 86.2328 70.9512 82.6051 68.6183 80.8447C61.1515 75.2104 48.5068 63.9242 53.1762 55.0172C55.7947 50.0224 63.6131 48.4087 68.8918 52.1441C70.0364 52.954 70.8306 53.4127 71.3726 53.6345C73.0265 54.3111 71.8134 51.2238 70.8427 49.7235C70.2775 48.8498 69.5204 48.0474 68.6062 47.9301C60.3084 46.8655 44.9782 44.7201 41.3332 54.0623Z" fill="#C2EB6C"/>
<path d="M99.0312 75.8339C102.324 68.1211 84.7697 47.2126 78.1585 41.1344C76.8414 39.9235 74.8988 39.7896 73.3847 40.7428C70.9114 42.2998 70.7923 45.926 73.0396 47.7945C80.2324 53.7747 92.3307 65.6447 87.2464 74.3216C84.3953 79.1873 78.4814 81.4719 73.3847 77.4916C69.1676 74.1982 69.2959 80.5006 69.4657 82.7738C69.5045 83.2927 69.5536 83.8008 69.5926 84.3197C69.6596 85.2122 69.7905 86.7827 69.9943 88.5252C70.6821 94.403 75.276 95.5239 80.2223 92.275C87.3148 87.6164 96.9952 80.6031 99.0312 75.8339Z" fill="#A1DA27"/>
<mask id="mask0_192_1400" style="mask-type:alpha" maskUnits="userSpaceOnUse" x="63" y="70" width="12" height="42">
<path d="M68.1074 111.831C65.535 111.831 63.4496 110.001 63.4496 107.744L63.4496 77.2577C63.9196 70.0156 61.858 68.1295 66.4814 72.2391C68.3445 73.8952 67.8787 73.6364 74.1668 77.8285L72.7652 107.744C72.7652 110.001 70.6799 111.831 68.1074 111.831Z" fill="#C2E96F"/>
</mask>
<g mask="url(#mask0_192_1400)">
<rect x="69.0388" y="70.248" width="6.05514" height="45.6464" fill="#D3F193"/>
<rect x="63.4495" y="70.248" width="5.58936" height="45.6464" fill="#F0FFCF"/>
</g>
<path d="M69.1649 24V12.3636H71.9774V21.7159H76.8183V24L69.1649 24Z" fill="#65783E"/>
<path d="M109.561 33.0306C108.809 34.0664 107.972 34.7996 107.05 35.2303C106.129 35.6611 105.192 35.8162 104.24 35.6958C103.291 35.5776 102.395 35.2124 101.552 34.6001C100.707 33.9856 100.082 33.2439 99.6787 32.3749C99.2753 31.5059 99.1349 30.5682 99.2575 29.5616C99.3854 28.5543 99.8246 27.5342 100.575 26.5015C101.327 25.4657 102.163 24.7314 103.081 24.2984C104.003 23.8677 104.938 23.7115 105.887 23.8296C106.836 23.9478 107.733 24.3142 108.579 24.9287C109.422 25.541 110.046 26.28 110.452 27.146C110.86 28.0141 111.002 28.953 110.877 29.9625C110.753 30.9721 110.314 31.9948 109.561 33.0306ZM107.235 31.3407C107.681 30.7278 107.97 30.1465 108.102 29.5967C108.238 29.0491 108.222 28.5485 108.056 28.0949C107.892 27.6436 107.583 27.2532 107.13 26.9236C106.679 26.5963 106.213 26.4235 105.73 26.4051C105.247 26.3866 104.764 26.5254 104.282 26.8214C103.804 27.1196 103.341 27.5752 102.896 28.1881C102.451 28.8009 102.16 29.3812 102.025 29.9288C101.892 30.4786 101.909 30.9803 102.076 31.4338C102.243 31.8874 102.551 32.2779 103.002 32.6051C103.455 32.9347 103.922 33.1075 104.402 33.1237C104.885 33.1421 105.366 33.0023 105.845 32.704C106.327 32.4081 106.79 31.9536 107.235 31.3407Z" fill="#65783E"/>
<path d="M129.351 52.75L122.049 57.8585L122.079 57.9504L130.989 57.7916L131.962 60.7853L119.682 60.6472L118.525 57.0861L128.378 49.7563L129.351 52.75Z" fill="#65783E"/>
<path d="M120.139 84.9976L131.206 88.5935L128.698 96.31L126.526 95.6042L128.164 90.5625L125.895 89.8251L124.385 94.4723L122.207 93.7647L123.717 89.1175L121.442 88.3783L119.804 93.42L117.631 92.7142L120.139 84.9976Z" fill="#65783E"/>
<path d="M106.785 123.23L99.945 113.816L102.22 112.163L109.06 121.577L106.785 123.23Z" fill="#65783E"/>
<path d="M77.2529 132.352V134.636H67.4177V132.352H70.9461V123H73.7188V132.352H77.2529Z" fill="#65783E"/>
<path d="M47.6153 114.759L40.7756 124.173L38.5003 122.52L43.9974 114.954L40.081 112.109L41.4236 110.261L47.6153 114.759Z" fill="#65783E"/>
<path d="M15.0822 90.4465L26.149 86.8507L27.0181 89.5255L15.9513 93.1213L15.0822 90.4465Z" fill="#65783E"/>
<path d="M25.627 61.8084L14.5601 58.2126L17.0147 50.6582L19.187 51.364L17.6015 56.2436L19.8711 56.981L21.3003 52.5824L23.478 53.2899L22.0488 57.6886L26.4961 59.1336L25.627 61.8084Z" fill="#65783E"/>
<path d="M41.3233 36.4449L34.4836 27.0308L41.0477 22.2618L42.3903 24.1096L38.1016 27.2256L39.5042 29.1562L43.4574 26.284L44.8033 28.1365L40.8501 31.0086L42.2561 32.9438L46.5448 29.8279L47.8874 31.6758L41.3233 36.4449Z" fill="#65783E"/>
</svg>
