<svg width="271" height="170" viewBox="0 0 271 170" fill="none" xmlns="http://www.w3.org/2000/svg">
<circle cx="134.068" cy="86.7289" r="69.0677" stroke="#A1DA27" stroke-width="8"/>
<path d="M102.333 67.0623C98.3027 77.3925 117.929 94.9791 124.819 100.739C126.192 101.886 128.139 101.928 129.606 100.905C132.003 99.2328 131.951 95.6051 129.618 93.8447C122.152 88.2104 109.507 76.9242 114.176 68.0172C116.795 63.0224 124.613 61.4087 129.892 65.1441C131.036 65.954 131.831 66.4127 132.373 66.6345C134.026 67.3111 132.813 64.2238 131.843 62.7235C131.278 61.8498 130.52 61.0474 129.606 60.9301C121.308 59.8655 105.978 57.7201 102.333 67.0623Z" fill="#C2EB6C"/>
<path d="M160.031 88.8339C163.324 81.1211 145.77 60.2126 139.158 54.1344C137.841 52.9235 135.899 52.7896 134.385 53.7428C131.911 55.2998 131.792 58.926 134.04 60.7945C141.232 66.7747 153.331 78.6447 148.246 87.3216C145.395 92.1873 139.481 94.4719 134.385 90.4916C130.168 87.1982 130.296 93.5006 130.466 95.7738C130.504 96.2927 130.554 96.8008 130.593 97.3197C130.66 98.2122 130.79 99.7827 130.994 101.525C131.682 107.403 136.276 108.524 141.222 105.275C148.315 100.616 157.995 93.6031 160.031 88.8339Z" fill="#A1DA27"/>
<mask id="mask0_192_1397" style="mask-type:alpha" maskUnits="userSpaceOnUse" x="124" y="83" width="12" height="42">
<path d="M129.107 124.831C126.535 124.831 124.45 123.001 124.45 120.744L124.45 90.2577C124.92 83.0156 122.858 81.1295 127.481 85.2391C129.344 86.8952 128.879 86.6364 135.167 90.8285L133.765 120.744C133.765 123.001 131.68 124.831 129.107 124.831Z" fill="#C2E96F"/>
</mask>
<g mask="url(#mask0_192_1397)">
<rect x="130.039" y="83.248" width="6.05514" height="45.6464" fill="#D3F193"/>
<rect x="124.449" y="83.248" width="5.58936" height="45.6464" fill="#F0FFCF"/>
</g>
<path d="M130.165 37V25.3636H132.977V34.7159H137.818V37H130.165Z" fill="#65783E"/>
<path d="M170.561 46.0306C169.809 47.0664 168.972 47.7996 168.05 48.2303C167.129 48.6611 166.192 48.8162 165.24 48.6958C164.291 48.5776 163.395 48.2124 162.552 47.6001C161.707 46.9856 161.082 46.2439 160.679 45.3749C160.275 44.5059 160.135 43.5682 160.258 42.5616C160.385 41.5543 160.825 40.5342 161.575 39.5015C162.327 38.4657 163.163 37.7314 164.081 37.2984C165.003 36.8677 165.938 36.7115 166.887 36.8296C167.836 36.9478 168.733 37.3142 169.579 37.9287C170.422 38.541 171.046 39.28 171.452 40.146C171.86 41.0141 172.002 41.953 171.877 42.9625C171.753 43.9721 171.314 44.9948 170.561 46.0306ZM168.235 44.3407C168.681 43.7278 168.97 43.1465 169.102 42.5967C169.238 42.0491 169.222 41.5485 169.056 41.0949C168.892 40.6436 168.583 40.2532 168.13 39.9236C167.679 39.5963 167.213 39.4235 166.73 39.4051C166.247 39.3866 165.764 39.5254 165.282 39.8214C164.804 40.1196 164.341 40.5752 163.896 41.1881C163.451 41.8009 163.16 42.3812 163.025 42.9288C162.892 43.4786 162.909 43.9803 163.076 44.4338C163.243 44.8874 163.551 45.2779 164.002 45.6051C164.455 45.9347 164.922 46.1075 165.402 46.1237C165.885 46.1421 166.366 46.0023 166.845 45.704C167.327 45.4081 167.79 44.9536 168.235 44.3407Z" fill="#65783E"/>
<path d="M190.351 65.75L183.049 70.8585L183.079 70.9504L191.989 70.7916L192.962 73.7853L180.682 73.6472L179.525 70.0861L189.378 62.7563L190.351 65.75Z" fill="#65783E"/>
<path d="M181.139 97.9976L192.206 101.593L189.698 109.31L187.526 108.604L189.164 103.563L186.895 102.825L185.385 107.472L183.207 106.765L184.717 102.118L182.442 101.378L180.804 106.42L178.631 105.714L181.139 97.9976Z" fill="#65783E"/>
<path d="M167.785 136.23L160.945 126.816L163.22 125.163L170.06 134.577L167.785 136.23Z" fill="#65783E"/>
<path d="M138.253 145.352V147.636H128.418V145.352H131.946V136H134.719V145.352H138.253Z" fill="#65783E"/>
<path d="M108.615 127.759L101.776 137.173L99.5003 135.52L104.997 127.954L101.081 125.109L102.424 123.261L108.615 127.759Z" fill="#65783E"/>
<path d="M76.0822 103.446L87.149 99.8507L88.0181 102.525L76.9513 106.121L76.0822 103.446Z" fill="#65783E"/>
<path d="M86.627 74.8084L75.5601 71.2126L78.0147 63.6582L80.187 64.364L78.6015 69.2436L80.8711 69.981L82.3003 65.5824L84.478 66.2899L83.0488 70.6886L87.4961 72.1336L86.627 74.8084Z" fill="#65783E"/>
<path d="M102.323 49.4449L95.4836 40.0308L102.048 35.2618L103.39 37.1096L99.1016 40.2256L100.504 42.1562L104.457 39.284L105.803 41.1365L101.85 44.0086L103.256 45.9438L107.545 42.8279L108.887 44.6758L102.323 49.4449Z" fill="#65783E"/>
</svg>
